<svg class="icon" style="width: 1em;height: 1em;vertical-align: middle;fill: currentColor;overflow: hidden;" viewBox="0 0 1024 1024" version="1.1" xmlns="http://www.w3.org/2000/svg" p-id="2913"><path d="M1024 511.992C1024 794.778 794.808 1024 512.008 1024 229.254 1024 0 794.778 0 511.992 0 229.222 229.254 0 512.008 0 794.808 0 1024 229.222 1024 511.992z" fill="#81c7d0" p-id="2914"></path><path d="M582.698 483.118c-75.69 15.906-151.502 18.016-225.316 6.296-59.812-9.484-118.564-28.016-174.626-55.062-76.064-36.674-129.44-80.908-150.69-100.97a507.506 507.506 0 0 0-14.314 44.468c29.252 25.158 79.314 62.44 145.628 94.518 59.876 29 122.69 48.876 186.69 59.094a648.42 648.42 0 0 0 102.126 8.078c46.188 0 92.814-4.89 139.252-14.656 149.002-31.312 262.926-27.796 332.302-19.328 48 5.844 81.812 14.812 100.062 20.546 0.124-4.688 0.188-9.39 0.188-14.11 0-10.282-0.312-20.484-0.876-30.624-21-5.86-51.812-12.876-91.812-17.876-132.19-16.546-262.55 1.548-348.614 19.626zM1006 647.12c-24.876 7.124-87.624 23.876-166.876 35.876-170.236 25.812-284.614 10.376-350.552-7.124-148.19-39.314-271.378-34.064-348.694-22.752-51.124 7.5-89.25 18.438-111.938 26.126a514.716 514.716 0 0 0 15.688 39.75c21.124-7 56.876-17.094 104.25-23.906 73.002-10.5 189.442-15.188 329.756 22.032 56.438 14.968 119.814 22.468 189.378 22.468 55.812 0 115.672-4.844 179.236-14.5 60.564-9.218 111.064-20.876 143.814-29.376 6.062-15.842 11.438-32.032 15.938-48.594zM710.574 909.936c-25-15.5-54.562-26-88.002-31.188-40.562-6.344-87.002-4.844-138.002 4.438-145.314 26.5-311.754-2.282-331.256-5.844a521.64 521.64 0 0 0 62.126 52.096c68.752 7.75 176.126 14.062 276.754-4.252 80.314-14.624 147.128-7.938 193.254 19.376 19.75 11.75 31.688 24.75 38.312 33.75a501.42 501.42 0 0 0 38.36-19.468c-8.312-12.72-24.17-31.908-51.546-48.908zM978.688 301.114c-28 3.22-96.876 9.986-179.566 9.814-140.922-0.296-257.674-20.516-337.55-58.486-99.126-47.094-198.442-63.906-264.254-69.718-29.438-2.594-54.752-3.312-74.626-3.234a506.232 506.232 0 0 0-33.5 43.718c38.562-2.36 197.504-6.594 354.068 67.766 86.938 41.298 206.816 62.36 356.426 62.61h2.624c99.378 0 177.004-9.422 192.816-11.484a491.984 491.984 0 0 0-16.438-40.986zM873.936 149.862c-69.69 0.11-220.674-4.702-305.676-45.142-78.314-37.266-181.004-56.672-251.254-66.266a511.53 511.53 0 0 0-69.626 35.142c45.69 4.016 199.692 20.704 302.506 69.64 91.69 43.612 244.862 49.392 319.614 49.392 22.19 0 37.44-0.516 42.19-0.688a507.3 507.3 0 0 0-37.754-42.078z" fill="#4798c4" p-id="2915"></path><path d="M213.378 789.34a128.002 64.002 0 1 0 256.004 0 128.002 64.002 0 1 0-256.004 0Z" fill="#4798c4" p-id="2916"></path></svg>