<svg class="icon" style="width: 1em;height: 1em;vertical-align: middle;fill: currentColor;overflow: hidden;" viewBox="0 0 1024 1024" version="1.1" xmlns="http://www.w3.org/2000/svg" p-id="2645"><path d="M512.01 0C229.224 0 0 229.222 0 511.994 0 794.78 229.224 1024 512.01 1024 794.746 1024 1024 794.78 1024 511.994 1024 229.222 794.746 0 512.01 0z" fill="#d76f4e" p-id="2646"></path><path d="M426.664 106.658c11.782 0 21.344 9.546 21.344 21.33 0 11.796-9.562 21.342-21.344 21.342-11.782 0-21.342-9.546-21.342-21.342-0.002-11.782 9.56-21.33 21.342-21.33zM448.008 170.66c47.126 0 85.3 38.202 85.3 85.328 0 47.144-38.174 85.344-85.3 85.344s-85.344-38.202-85.344-85.344c0-47.126 38.218-85.328 85.344-85.328zM106.658 554.68c-11.78 0-21.344-9.56-21.344-21.344 0-11.782 9.564-21.342 21.344-21.342 11.782 0 21.344 9.562 21.344 21.342 0 11.784-9.562 21.344-21.344 21.344zM213.318 575.994c-35.344 0-64.002-28.624-64.002-64 0-35.346 28.658-64 64.002-64 35.376 0 64 28.656 64 64 0 35.376-28.626 64-64 64zM213.318 213.332c0-35.344 28.658-64.002 64-64.002 35.376 0 64.002 28.658 64.002 64.002 0 35.344-28.626 64-64.002 64-35.344 0.002-64-28.656-64-64zM341.32 661.34c0 11.782-9.532 21.344-21.312 21.344-11.782 0-21.344-9.562-21.344-21.344s9.562-21.346 21.344-21.346c11.78 0 21.312 9.564 21.312 21.346zM384.006 896c-47.124 0-85.344-38.19-85.344-85.314 0-47.126 38.22-85.346 85.344-85.346s85.314 38.218 85.314 85.346c0 47.124-38.188 85.314-85.314 85.314zM490.664 797.34c0-35.344 28.658-64 64.016-64 35.314 0 64.004 28.656 64.004 64 0 35.346-28.69 64.004-64.004 64.004-35.36 0-64.016-28.658-64.016-64.004zM618.684 938.686c-11.814 0-21.376-9.56-21.376-21.342 0-11.784 9.56-21.344 21.376-21.344 11.75 0 21.31 9.56 21.31 21.344 0 11.78-9.56 21.342-21.31 21.342zM639.994 213.332c0-47.126 38.19-85.344 85.314-85.344 47.188 0 85.376 38.218 85.376 85.344 0 47.126-38.19 85.328-85.376 85.328-47.124 0-85.314-38.202-85.314-85.328zM725.308 362.664c-11.75 0-21.312-9.548-21.312-21.33 0-11.78 9.562-21.342 21.312-21.342 11.812 0 21.376 9.562 21.376 21.342 0.002 11.782-9.562 21.33-21.376 21.33zM831.996 767.996c-35.31 0-64-28.624-64-64 0-35.346 28.69-64.002 64-64.002 35.376 0 64.004 28.656 64.004 64.002 0 35.376-28.628 64-64.004 64zM874.686 618.684c-35.376 0-64-28.69-64-64.004 0-35.36 28.624-64.016 64-64.016 35.314 0 64 28.658 64 64.016 0 35.314-28.686 64.004-64 64.004z" fill="#bd5d45" p-id="2647"></path></svg>