<svg class="icon" style="width: 1em;height: 1em;vertical-align: middle;fill: currentColor;overflow: hidden;" viewBox="0 0 1024 1024" version="1.1" xmlns="http://www.w3.org/2000/svg" p-id="2759"><path d="M1023.992 512c0 282.75-229.188 512-511.984 512-282.782 0-512-229.25-512-512 0-282.782 229.218-512 512-512 282.796 0 511.984 229.218 511.984 512z" fill="#e36c50" p-id="2760"></path><path d="M576.008 256H68.508c-8 13.812-15.376 28.062-22.062 42.656h529.562c11.782 0 21.344-9.562 21.344-21.344S587.79 256 576.008 256zM927.93 810.656H533.352c-11.782 0-21.344 9.562-21.344 21.344s9.562 21.312 21.344 21.312h360.266a507.252 507.252 0 0 0 34.312-42.656zM298.664 682.656H29.132a513.62 513.62 0 0 0 17.312 42.656h252.218c11.782 0 21.344-9.532 21.344-21.312s-9.56-21.344-21.342-21.344zM725.352 533.312c0 11.782 9.532 21.344 21.312 21.344h275.578a506.58 506.58 0 0 0 1.75-42.656H746.664a21.3 21.3 0 0 0-21.312 21.312zM149.352 490.656c0-11.782-9.562-21.344-21.344-21.344H1.758A521.77 521.77 0 0 0 0.008 512h128c11.782 0 21.344-9.562 21.344-21.344zM362.664 128c11.782 0 21.344-9.562 21.344-21.344s-9.562-21.344-21.344-21.344h-133.75A515.926 515.926 0 0 0 173.352 128h189.312zM682.664 533.312c0 35.376-57.282 64-128 64-70.688 0-128-28.624-128-64 0-35.344 57.312-64 128-64 70.718 0 128 28.656 128 64z" fill="#d15b3f" p-id="2761"></path></svg>