<svg class="icon" style="width: 1em;height: 1em;vertical-align: middle;fill: currentColor;overflow: hidden;" viewBox="0 0 1024 1024" version="1.1" xmlns="http://www.w3.org/2000/svg" p-id="2000"><path d="M981.324 511.998c0 259.2-210.136 469.32-469.322 469.32-259.214 0-469.336-210.122-469.336-469.32 0-259.214 210.122-469.334 469.336-469.334 259.186 0 469.322 210.12 469.322 469.334z" fill="#f5e8be" p-id="2001"></path><path d="M1001.132 22.866C954.2-24.04 842.886 3.492 706.344 84.694a464.53 464.53 0 0 1 44.782 23.39 993.138 993.138 0 0 1 20-10.906c110.262-58.264 179.824-64.154 199.824-44.138 20 20.014 14.124 89.576-44.124 199.824-29.938 56.656-70.062 117.794-119.25 181.73-51.324 66.704-110.168 133.358-174.886 198.106-64.75 64.688-131.404 123.56-198.09 174.874-63.936 49.186-125.09 89.31-181.748 119.248-110.248 58.248-179.778 64.124-199.808 44.124-20.032-19.998-14.156-89.56 44.156-199.808a851.604 851.604 0 0 1 10.874-20 467.984 467.984 0 0 1-23.374-44.78C3.48 842.884-24.05 954.196 22.886 1001.13c83.312 83.31 369.806-68.154 639.958-338.306C932.95 392.72 1084.446 106.176 1001.132 22.866z" fill="#F6BB42" p-id="2002"></path></svg>