<svg class="icon" style="width: 1em;height: 1em;vertical-align: middle;fill: currentColor;overflow: hidden;" viewBox="0 0 1024 1024" version="1.1" xmlns="http://www.w3.org/2000/svg" p-id="2226"><path d="M1024 511.996c0 282.75-229.25 512-512.01 512C229.21 1023.996 0 794.746 0 511.996 0 229.216 229.21 0.004 511.99 0.004 794.75 0.004 1024 229.216 1024 511.996z" fill="#efcd83" p-id="2227"></path><path d="M136.866 163.534c6.97 7.124 65.22 64.086 198.096 120.75 80.654 34.376 172.712 61.75 273.558 81.336 122.306 23.778 258.04 36.124 403.672 36.778a492.76 492.76 0 0 0-11.25-42.75c-137.576-1.182-265.806-13.058-381.52-35.366-97.596-18.788-186.556-44.972-264.402-77.846-69.154-29.192-116.558-58.376-144.154-77.682C181.182 147.966 167.46 133.812 167.182 133.504c-0.222 0.182-0.414 0.376-0.624 0.586l-14.624 13.914a508.872 508.872 0 0 0-15.068 15.53zM658.79 580.648c122.02 26.04 234.96 60.25 336.152 101.79a538.492 538.492 0 0 0 12.5-40.98c-102.576-41.848-216.692-76.27-339.77-102.52-106.25-22.664-219.374-39.29-336.21-49.414-164.442-14.278-290.75-11.5-330.46-10.058A525.786 525.786 0 0 0 0 511.996c0 3.404 0.03 6.806 0.086 10.192 35.096-1.348 161.25-4.598 327.684 9.848 115.096 9.96 226.47 26.324 331.02 48.612zM613.394 836.958c-77.348-7.558-158.624-9.118-241.624-4.692-120.876 6.5-208.684 23.632-234.116 29.036a517.438 517.438 0 0 0 37.432 36.214c40-7.176 111.376-18 199.904-22.676 80.75-4.29 159.75-2.73 234.836 4.618 75.194 7.382 146.54 20.632 212.866 39.46a494.168 494.168 0 0 0 38.868-32.902c-76.502-23.926-159.85-40.466-248.166-49.058z" fill="#d98652" p-id="2228"></path></svg>