<svg class="icon" style="width: 1em;height: 1em;vertical-align: middle;fill: currentColor;overflow: hidden;" viewBox="0 0 1024 1024" version="1.1" xmlns="http://www.w3.org/2000/svg" p-id="10245"><path d="M358.4 416.256c0-137.63584 41.44128-272.0768 118.92736-385.82272 16.65024-24.45312 52.69504-24.45312 69.35552 0A685.32224 685.32224 0 0 1 665.6 416.24576V870.4a61.44 61.44 0 0 1-61.44 61.44H419.84a61.44 61.44 0 0 1-61.44-61.44V416.256z" fill="white" p-id="10246"></path><path d="M409.6 931.84a92.16 92.16 0 0 0 92.16 92.16h20.48a92.16 92.16 0 0 0 92.16-92.16H409.6zM20.48 860.16v-91.11552a561.07008 561.07008 0 0 0 328.96-252.27264L358.4 501.76v358.4H20.48zM1003.52 860.16v-91.11552a561.07008 561.07008 0 0 1-328.96-252.27264L665.6 501.76v358.4h337.92z" fill="#bfbfbf" p-id="10247"></path><path d="M0 665.6m56.32 0l0 0q56.32 0 56.32 56.32l0 163.84q0 56.32-56.32 56.32l0 0q-56.32 0-56.32-56.32l0-163.84q0-56.32 56.32-56.32Z" fill="white" p-id="10248"></path><path d="M911.36 665.6m56.32 0l0 0q56.32 0 56.32 56.32l0 163.84q0 56.32-56.32 56.32l0 0q-56.32 0-56.32-56.32l0-163.84q0-56.32 56.32-56.32Z" fill="white" p-id="10249"></path><path d="M664.6784 457.90208c-49.1008 5.376-100.1984 8.21248-152.6784 8.21248s-103.5776-2.83648-152.6784-8.21248a885.0432 885.0432 0 0 1 28.2112-184.81152C425.39008 281.83552 467.5584 286.72 512 286.72c44.4416 0 86.60992-4.88448 124.4672-13.62944a885.10464 885.10464 0 0 1 28.2112 184.81152z" fill="#bfbfbf" p-id="10250"></path><path d="M512 378.88m-51.2 0a51.2 51.2 0 1 0 102.4 0 51.2 51.2 0 1 0-102.4 0Z" fill="#FFA17E" p-id="10251"></path></svg>