<svg class="icon" style="transform: rotate(-90deg); width: 1em;height: 1em;vertical-align: middle;fill: currentColor;overflow: hidden;" viewBox="0 0 1280 1280" version="1.1" xmlns="http://www.w3.org/2000/svg" p-id="23481"><path fill="#bfbfbf" d="M64 832c0 70.7 42.98 128 96 128h32V704H64z m309.08-464h560.26L752 336C486 281.18 444.9 102.44 256 69.3V320h36.68a91.24 91.24 0 0 1 80.4 48zM64 192v128h128V64H160c-53.02 0-96 57.3-96 128z m228.68 512H256v250.7C444.9 921.56 486 742.82 752 688l181.34-32H373.08a91.24 91.24 0 0 1-80.4 48z"></path><path d="M1185.2 416.48C1119.46 385.68 1031.56 368 944 368H373.08a91.24 91.24 0 0 0-80.4-48H64c-46.4 0-64 20-64 48v288c0 28 17.64 48 64 48h228.68a91.24 91.24 0 0 0 80.4-48H944c87.56 0 175.46-17.68 241.2-48.48C1244.56 579.68 1280 544 1280 512s-35.44-67.68-94.8-95.52zM976 592a16 16 0 0 1-16-16v-128a16 16 0 0 1 16-16c63.82 0 63.88 160 0 160z" fill="white" p-id="23483"></path></svg>