<svg class="icon" style="width: 1em;height: 1em;vertical-align: middle;fill: currentColor;overflow: hidden;" viewBox="0 0 1024 1024" version="1.1" xmlns="http://www.w3.org/2000/svg" p-id="10506"><path d="M607.457627 607.457627l173.559322 173.559322V277.694915H607.457627v329.762712M694.237288 121.491525a178.488407 178.488407 0 0 0-83.586169 121.491526h167.172339A178.488407 178.488407 0 0 0 694.237288 121.491525M173.559322 121.491525a178.488407 178.488407 0 0 0-83.586169 121.491526h167.172339A178.488407 178.488407 0 0 0 173.559322 121.491525M86.779661 781.016949l173.559322-173.559322V277.694915H86.779661v503.322034" fill="#ECF0F1" p-id="10507"></path><path d="M610.651119 242.983051c-1.874441 10.413559-3.193492 20.983322-3.193492 31.778712V277.694915h173.559322v-2.933152c0-10.79539-1.319051-21.365153-3.193491-31.778712h-167.172339M89.973153 242.983051C88.098712 253.39661 86.779661 263.966373 86.779661 274.761763V277.694915h173.559322v-2.933152c0-10.79539-1.319051-21.365153-3.193491-31.778712H89.973153" fill="#D1D4D1" p-id="10508"></path><path d="M555.389831 849.763797l-34.711865-86.779661V520.677966l86.779661 86.779661V306.540475A357.497492 357.497492 0 0 0 440.944814 4.338983a13.312 13.312 0 0 0-14.093017 0A357.497492 357.497492 0 0 0 260.338983 306.540475V607.457627l86.779661-86.779661v242.30617l-34.711864 86.779661V902.508475h242.983051v-52.744678" fill="#F18D46" p-id="10509"></path><path d="M798.372881 1006.644068H590.101695a6.716746 6.716746 0 0 1-5.380339-10.743322L607.457627 902.508475h173.559322l22.736271 93.392271A6.716746 6.716746 0 0 1 798.372881 1006.644068M277.694915 1006.644068H69.423729a6.716746 6.716746 0 0 1-5.380339-10.743322L86.779661 902.508475h173.559322l22.736271 93.392271A6.716746 6.716746 0 0 1 277.694915 1006.644068" fill="#38454F" p-id="10510"></path><path d="M520.677966 762.984136v-451.254238c0-54.133153-21.504-106.062102-59.791186-144.349288a38.165695 38.165695 0 0 0-53.976949 0A204.140475 204.140475 0 0 0 347.118644 311.729898v451.254238l-34.711864 86.779661V902.508475h242.983051v-52.744678l-34.711865-86.779661" fill="#ECF0F1" p-id="10511"></path><path d="M555.389831 902.508475h312.406779v-34.711865L520.677966 520.677966v242.30617l34.711865 86.779661V902.508475M312.40678 901.831593v-52.067796l34.711864-86.779661V520.677966L0 867.79661v34.711865h312.40678v-0.676882" fill="#D1D4D1" p-id="10512"></path><path d="M34.711864 833.084746l-34.711864 34.711864v34.711865h312.40678v-52.744678l6.664678-16.679051H34.711864M555.389831 849.763797V902.508475h312.406779v-34.711865l-34.711864-34.711864H548.707797l6.682034 16.679051" fill="#546A79" p-id="10513"></path><path d="M468.610169 329.762712h-69.423728v-34.711865a34.711864 34.711864 0 1 1 69.423728 0v34.711865" fill="#38454F" p-id="10514"></path><path d="M520.677966 954.576271H347.118644l17.355932-52.067796h138.847458l17.355932 52.067796" fill="#38454F" p-id="10515"></path></svg>